<svg version="1.2" xmlns="http://www.w3.org/2000/svg" viewBox="0 0 800 800" width="800" height="800">
	<title>New Project</title>
	<style>
		.s0 { fill: none;stroke: #8f8bb2;stroke-linecap: round;stroke-linejoin: round;stroke-width: 6 } 
		.s1 { fill: none;stroke: #8f8bb2;stroke-linecap: round;stroke-linejoin: round;stroke-width: 10 } 
		.s2 { fill: none;stroke: #8f8bb2;stroke-width: 10 } 
		.s3 { fill: #8f8bb2 } 
		.s4 { fill: none;stroke: #2f3c8a;stroke-width: 10 } 
		.s5 { fill: none;stroke: #0f1b61;stroke-width: 10 } 
		.s6 { fill: #8f8bb2;stroke: #8f8bb2;stroke-width: 10 } 
		.s7 { fill: none;stroke: #0f1b61;stroke-linecap: round;stroke-linejoin: round;stroke-width: 10 } 
		.s8 { fill: none;stroke: #0f1b61;stroke-linecap: round;stroke-linejoin: round;stroke-width: 6 } 
		.s9 { fill: none;stroke: #0f1b61;stroke-linecap: round;stroke-linejoin: round;stroke-width: 8 } 
	</style>
	<path id="Shape 45" class="s0" d="m143 577c7.8-12.4-6.6-24.8-20-36-13.4-11.2 14-17 14-17"/>
	<path id="Layer 85" class="s0" d="m147 561c0 0-37-20.4-32-29"/>
	<path id="Shape 46" class="s0" d="m119 546c0 0 6.6-22.2 21-20"/>
	<path id="Layer 86" class="s1" d="m102 606c0 0 100.8 69.1 137 75"/>
	<path id="Shape 47" class="s1" d="m234 687c0 0 323.2-91.1 323-122"/>
	<path id="Shape 48" class="s1" d="m562 577c0 0-284.8 100.9-320 95"/>
	<path id="Shape 49" class="s1" d="m564 565l-14 15"/>
	<path id="Shape 50" class="s1" d="m267 676l-39-1"/>
	<path id="Shape 51" class="s1" d="m104 616l129 72"/>
	<path id="Shape 52" class="s1" d="m185 496c0 0 12.8 22.2 71 3"/>
	<path id="Shape 53" class="s1" d="m194 468c0 0 8.6 5.8 69-16"/>
	<path id="Layer 94" class="s2" d="m499 515c0 0 27-4.7 35-15 8-10.3-6-22-6-22 0 0-6-10.4 18-3 24 7.4 21.2 13.4 35 32 13.8 18.6 29-1 29-1 0 0 34-37.2 54-5"/>
	<path id="Layer 95" class="s2" d="m539 497l1 6-50 8"/>
	<path id="Layer 96" class="s2" d="m526 502c0 0 7.2-11.2-3-29-10.2-17.8 49 12 49 12l4 21 3 8 15 3 8-3-16-6"/>
	<path id="Shape 64" class="s2" d="m533 490l3-14"/>
	<path id="Shape 65" class="s2" d="m718 576c5.6-13.2-52.8-34.4-66-41-13.2-6.6 14-35 14-35"/>
	<path id="Layer 97" class="s2" d="m710 572c0 0-17.2-12.8-46-24-28.8-11.2-20-25-20-25"/>
	<path id="Shape 55" class="s2" d="m91 408c-32-7.2-51-25-51-25 0 0-3-128.2-3-153 0-24.8 54-40 54-40"/>
	<path id="Layer 87" class="s3" d="m88 407l-42-21c0 0-6.2 10.4-6-20 0.2-30.4-17.8-144.8 19-162 36.8-17.2 32-6 32-6l1 209"/>
	<path id="Layer 68" class="s4" d="m193 342l192-36"/>
	<path id="Layer 89" class="s2" d="m263 531c-56.2 19.6-84.6-23.2-47-18 37.6 5.2 45-16 45-16"/>
	<path id="Layer 69" class="s5" d="m193 310l85-12"/>
	<path id="Layer 90" class="s2" d="m223 499c0 0-2.6-10.8-2-22 0.6-11.2 38-22 38-22"/>
	<path id="Layer 92" class="s2" d="m288 664c-27 7.6-49 3-49 3 0 0 38.8 23.8-14-4-52.8-27.8-77.6-62.6-77-70 0.6-7.4 88-33 88-33"/>
	<path id="Layer 93" class="s3" d="m180 645l-72-46-1-7 32-7 10 11 3 10 16 18 26 22"/>
	<path id="Shape 61" class="s2" d="m153 579l-4 12-23-2"/>
	<path id="Shape 62" class="s2" d="m165 621c0 0-25.2-33.8 4-41"/>
	<path id="Layer 91" class="s3" d="m193 491l-1-20 10-3 22 1 15-8"/>
	<path id="Shape 59" class="s3" d="m218 474l2 23-18 2-9-10"/>
	<path id="Shape 60" class="s6" d="m199 510l-1 7 1 7 8 8 8 8-24 2-21-4-16-7-7-6-2-8 6-9 13-6 18-5"/>
	<path id="Layer 70" class="s4" d="m194 272.6l134-14.2"/>
	<path id="Shape 54" class="s2" d="m169 468c-21-1.2-2.6-2.6-36-9-33.4-6.4-30.2-31.1-33-57-2.8-25.9 0.8-180.2-2-208-2.8-27.8 20.4-42.2 38-50 17.6-7.8 22-19 22-19"/>
	<path id="Shape 42" class="s5" d="m191 190l194-24"/>
	<path id="Layer 73" class="s5" d="m264 450c0 0 3 7.3 4 28 1 20.7-14.6 21.7-52 23-37.4 1.3-24-35-24-35"/>
	<path id="Shape 63" class="s5" d="m1037 599"/>
	<path id="Shape 56" class="s2" d="m162 123c0 0-9 23.6-30 38"/>
	<path id="Layer 88" class="s2" d="m154 467c-19.4-14.6-18-52-18-52 0 0-4.2-199.6-4-218 0.2-18.4 0-41 0-41"/>
	<path id="Shape 57" class="s3" d="m123 456l-18-7-7-41-1-76-4-101 8-72 40-15"/>
	<path id="Shape 58" class="s3" d="m140 459l-23-11-3-48 14-84 13 137"/>
	<path id="Layer 74" class="s5" d="m269 481c68.4-17.1 38 35.5 8 47-30 11.5-107.6 24.5-130 1-22.4-23.5 42-36 42-36"/>
	<path id="Layer 75" class="s5" d="m460 505c116.2 33.3 111.8 69.1 101 79-10.8 9.9-294 107.7-320 109-26 1.3-105.2-48.5-126-60-20.8-11.5-16-36-16-36"/>
	<path id="Layer 76" class="s7" d="m99 596c0 0-1.6-6.1 48-16 49.6-9.9 293.6-82.1 314-74"/>
	<path id="Layer 71" class="s4" d="m194 247l179-17"/>
	<path id="Layer 77" class="s5" d="m559 560c-20.8 25.9-291.2 107.7-322 109-30.8 1.3-134-72-134-72"/>
	<path id="Layer 72" class="s7" d="m193 217l85-10"/>
	<path id="Shape 43" class="s8" d="m167.6 591.8l13.1-4.9 4.1 11.1-13.1 4.9z"/>
	<path id="Shape 43 copy" class="s8" d="m217 577.9l13.1-4.9 4.1 11-13.1 5z"/>
	<path id="Shape 43 copy 2" class="s8" d="m270 564.9l13.1-4.9 4.1 11-13.1 5z"/>
	<path id="Shape 43 copy 3" class="s8" d="m326 549.8l13.1-4.9 4.1 11.1-13.1 4.9z"/>
	<path id="Shape 43 copy 4" class="s8" d="m375.4 535.9l13.1-4.9 4.2 11-13.1 5z"/>
	<path id="Shape 43 copy 5" class="s8" d="m428.4 522.9l13.1-4.9 4.2 11-13.1 5z"/>
	<path id="Shape 43 copy 6" class="s8" d="m204 605.8l13.1-4.9 4.1 11.1-13.1 4.9z"/>
	<path id="Shape 43 copy 7" class="s8" d="m253.4 591.9l13.1-4.9 4.2 11-13.1 5z"/>
	<path id="Shape 43 copy 8" class="s8" d="m306.4 578.9l13.1-4.9 4.2 11-13.1 5z"/>
	<path id="Shape 43 copy 9" class="s8" d="m362.4 563.8l13.1-4.9 4.2 11.1-13.1 4.9z"/>
	<path id="Shape 43 copy 10" class="s8" d="m411.8 549.9l13.2-4.9 4.1 11-13.1 5z"/>
	<path id="Shape 44" class="s8" d="m484 509c0 0 47.6-4.1 42-19-5.6-14.9-20.4-29.9 23-21 43.4 8.9 22.2 34.7 44 37 21.8 2.3 38.6-50.3 78-10"/>
	<path id="Layer 81" class="s8" d="m508 520c0 0 51.2-9.1 33-30-18.2-20.9 30.2-5.1 27 10-3.2 15.1 25.2 34.1 41 17 15.8-17.1 34.6-35.7 50-11"/>
	<path id="Layer 82" class="s8" d="m759 529c23 21.9-18.2 63.7-55 42-36.8-21.7-81.6-19.9-60-51 21.6-31.1 59-22 59-22 0 0 33 9.1 56 31z"/>
	<path id="Shape 43 copy 11" class="s8" d="m464.8 536.9l13.2-4.9 4.1 11-13.1 5z"/>
	<path id="Layer 79" class="s8" d="m137 579c11.8-25.4-15-22.6-23-40-8-17.4 27-18 27-18"/>
	<path id="Layer 80" class="s8" d="m149 579c4.6-12.2 3.4-21.4-15-35-18.4-13.6 12-15 12-15"/>
	<path id="Shape 43 copy 12" class="s8" d="m236 627.8l13.1-4.9 4.1 11.1-13.1 4.9z"/>
	<path id="Layer 83" class="s8" d="m718 504c-49.8 10.8-40.2 34.8-48 28-7.8-6.8-24-13-24-13"/>
	<path id="Layer 84" class="s8" d="m661 505c0 0 22-3.4 27 9"/>
	<path id="Shape 43 copy 13" class="s8" d="m285.4 613.9l13.1-4.9 4.2 11-13.1 5z"/>
	<path id="Layer 78" class="s8" d="m321.8 612l118.4-36 4.5 15-118.4 35.9z"/>
	<path id="Shape 43 copy 16" class="s8" d="m460 564.9l13.1-4.9 4.1 11-13.1 5z"/>
	<path id="Shape 43 copy 17" class="s8" d="m501.8 553.9l13.2-4.9 4.1 11-13.1 5z"/>
	<path id="Shape 41" class="s5" d="m193 403l193-48"/>
	<path id="Layer 67" class="s5" d="m192 374l142-32"/>
	<path id="Layer 58" class="s7" d="m158 176"/>
	<path id="Shape 34" class="s8" d="m119 183c-4.4 0-8-3.6-8-8 0-4.4 3.6-8 8-8 4.4 0 8 3.6 8 8 0 4.4-3.6 8-8 8z"/>
	<path id="Shape 34 copy" class="s8" d="m123 431c-4.4 0-8-3.6-8-8 0-4.4 3.6-8 8-8 4.4 0 8 3.6 8 8 0 4.4-3.6 8-8 8z"/>
	<path id="Layer 53" class="s7" d="m34 302c0 0 0.3-57.6-1-81-1.3-23.4 58-38 58-38"/>
	<path id="Layer 53 copy" class="s7" d="m91 416c0 0-59.3-14.6-58-38 1.3-23.4 1-81 1-81"/>
	<path id="Shape 36" class="s8" d="m56 369l23 10"/>
	<path id="Shape 36 copy" class="s8" d="m56 345l23 10"/>
	<path id="Shape 36 copy 2" class="s8" d="m56 321l23 10"/>
	<path id="Shape 36 copy 4" class="s8" d="m56 369l23 10"/>
	<path id="Shape 36 copy 5" class="s8" d="m56 345l23 10"/>
	<path id="Shape 36 copy 7" class="s8" d="m55.5 298.3l24 7.4"/>
	<path id="Shape 36 copy 8" class="s8" d="m55.6 275l23.8 8"/>
	<path id="Shape 36 copy 9" class="s8" d="m55.5 251.4l24 7.2"/>
	<path id="Shape 36 copy 10" class="s8" d="m55.2 228.4l24.6 5.2"/>
	<path id="Layer 56" class="s7" d="m94 212c0 0-5-49.1 10-56 15-6.9 35.4-14.7 51-31 15.6-16.3 267.4-31.2 276-12 8.6 19.2 9.5 62.6 13 155"/>
	<path id="Layer 57" class="s7" d="m444 268c0 0 1.2 108-17 120-18.2 12-246.9 100.1-287 78-40.1-22.1-51.4 31.7-46-251"/>
	<path id="Layer 60" class="s9" d="m362 144c65.2-10.7 63 12 63 12 0 0 1.4 141.1 1 183-0.4 41.9-115.6 65.3-180 85-64.4 19.7-75.6 7.5-84 0-8.4-7.5-4-247-4-247 3.6-10.5 138.8-22.3 204-33z"/>
	<path id="Layer 61" class="s8" d="m140 161c0 0-7.8 0.2-4 40"/>
	<path id="Shape 35" class="s8" d="m141 405c0 0-2.4 36.9 5 40"/>
</svg>