<svg version="1.2" xmlns="http://www.w3.org/2000/svg" viewBox="0 0 800 800" width="800" height="800">
	<title>New Project(74)</title>
	<defs>
		<filter x="-50%" y="-50%" width="200%" height="200%" id="f1"> <feGaussianBlur stdDeviation="NaN"/> </filter>
	</defs>
	<style>
		.s0 { fill: #ffffff;stroke: #ffffff;stroke-linecap: round;stroke-linejoin: round;stroke-width: 13 } 
		.s1 { fill: none;stroke: #ffffff;stroke-linecap: round;stroke-linejoin: round;stroke-width: 13 } 
		.s2 { fill: none;stroke: #0f1b61;stroke-linecap: round;stroke-linejoin: round;stroke-width: 10 } 
		.s3 { fill: none;stroke: #8f8bb2;stroke-linecap: round;stroke-linejoin: round;stroke-width: 10 } 
		.s4 { fill: none;stroke: #ffffff;stroke-linecap: round;stroke-linejoin: round;stroke-width: 8 } 
		.s5 { fill: none;stroke: #0f1b61;stroke-linecap: round;stroke-linejoin: round;stroke-width: 8 } 
		.s6 { opacity: .8;fill: #323232 } 
		.s7 { opacity: .8;fill: none;stroke: #323232;stroke-linecap: round;stroke-linejoin: round;stroke-width: 8 } 
		.s8 { opacity: .8;fill: none;stroke: #323232;stroke-linecap: round;stroke-linejoin: round;stroke-width: 10 } 
		.s9 { opacity: .8;fill: #323232;stroke: #323232;stroke-linecap: round;stroke-linejoin: round;stroke-width: 10 } 
		.s10 { fill: none;stroke: #222222;stroke-linecap: round;stroke-linejoin: round;stroke-width: 10 } 
		.s11 { fill: #222222;stroke: #222222;stroke-linecap: round;stroke-linejoin: round;stroke-width: 4 } 
		.s12 { filter: url(#f1);fill: none;stroke: #222222;stroke-linecap: round;stroke-linejoin: round;stroke-width: 10 } 
		.s13 { fill: #222222 } 
	</style>
	<g id="Folder 1">
		<path id="Layer 32" class="s0" d="m327 294c0 0 25.8 31.1 6 72"/>
		<path id="Shape 31" class="s0" d="m314.5 365c-11.9 0-21.5-15.2-21.5-34 0-18.8 9.6-34 21.5-34 11.9 0 21.5 15.2 21.5 34 0 18.8-9.6 34-21.5 34z"/>
		<path id="Shape 32" class="s0" d="m487.5 351c-10.8 0-19.5-12.5-19.5-28 0-15.5 8.7-28 19.5-28 10.8 0 19.5 12.5 19.5 28 0 15.5-8.7 28-19.5 28z"/>
		<path id="Shape 29" class="s1" d="m499 364c0 0 13.6-52.2 6-64"/>
		<path id="Layer 42" class="s2" d="m403 624"/>
		<path id="Layer 34" class="s3" d="m322 597"/>
		<path id="Shape 28" class="s3" d="m1191 323"/>
		<path id="Layer 32 copy" class="s4" d="m507.3 299.6c0 0 19.3 35.5-8 71.8"/>
		<path id="Layer 43" class="s5" d="m402 622"/>
		<path id="shirt" class="s6" d="m96 806c0 0-14-62.3 18-89 32-26.7 51.2-14.5 94-27 42.8-12.5 72.4-18.7 88-24 15.6-5.3-6.8 14.5-6 25 0.8 10.5 37.6 66.7 122 63 84.4-3.7 15 100 15 100m-48.2-1.1c0 0-69.4-103.7 15-100 84.4 3.7 121.2-52.5 122-63 0.8-10.5-21.6-30.3-6-25 15.6 5.3 45.2 11.5 88 24 42.8 12.5 62 0.3 94 27 32 26.7 18 89 18 89"/>
		<path id="Layer 81" class="s6" d="m189 326l-5-22v-40l1-36v-31-32-8l2-8-4-21 8-40 10-24 10-10 10-12 18-8 21-5h13 12l22-5 14-6 12-1 20-4 19-3h16l28-1 21 1 20 4 22 7 16 8 8-3h9l11 4 13 6 9 13 6 19 1 17 1 8 20 8 22 8 10 13 8 14 4 17v31l3 41-1 32v28 28l-3 15-15 5-9 4 5-24 2-76-3-39-4-14-7-12-4-15-8-8-9-11-11-9-12-5-13-4-19 1h-20l-20-5-24-11-10-8h-16l-11 4-19 8-8 9-10 11-6 13-8 12-8-5-4-20v-13l-21 17-5 16-7 12-7 17-4 10-8-18-9-32-9 28-8 22-7 5-8-44-7 7-4 9-4 12-6 7-3-14-12 7-5 12-4 19-2 30 3 27v28l3 40zm6-189l-18 16 8-40"/>
		<path id="Layer 40" class="s7" d="m379 674c0 0 20.2 18.3 44 0"/>
		<path id="Layer 36" class="s8" d="m347 516c0 0 118 24.9 131-12"/>
		<path id="Layer 37" class="s8" d="m444 427c0 0 20.2 35.9-6 37-26.2 1.1-27 12.9-46-1"/>
		<path id="Layer 35" class="s9" d="m323 598.5c0 0 34.6 28.3 77 26.5"/>
		<path id="Layer 35 copy" class="s9" d="m482 598c0 0-35.9 29.4-80 27.5"/>
		<path id="Shape 26" class="s8" d="m185 361c0 0 21 3.6 23 36"/>
		<path id="Layer 39" class="s8" d="m249 255c0 0 32.2-10.4 56-9 23.8 1.4 46.6 13.8 47-1"/>
		<path id="Layer 39 copy" class="s8" d="m454 245c0.4 14.8 23.2 2.4 47 1 23.8-1.4 56 9 56 9"/>
		<path id="Shape 25" class="s8" d="m596 400c0 0 1.2-38.6 25-38"/>
		<path id="Layer 29" class="s8" d="m455 371c0 0 29.6-5.7 55 4"/>
		<path id="Layer 38" class="s8" d="m292 377c0 0 27.8-10.1 55-4"/>
		<path id="Shape 27" class="s10" d="m379 669c0 0 21 20.1 44-1"/>
		<path id="Shape 18" class="s2" d="m488 364"/>
		<path id="Layer 28" class="s10" d="m290 375c0 0 23.2-13.4 60-5"/>
		<path id="Shape 2" class="s10" d="m230 430c-38.7 41-73.8-30-70-74 3.8-44 56-16 56-16"/>
		<path id="Layer 2" class="s11" d="m291 373c0 0 23-11.8 62-6m-56.5 43c-1.4 0-2.5-1.1-2.5-2.5 0-1.4 1.1-2.5 2.5-2.5 1.4 0 2.5 1.1 2.5 2.5 0 1.4-1.1 2.5-2.5 2.5zm54 0c-1.4 0-2.5-1.1-2.5-2.5 0-1.4 1.1-2.5 2.5-2.5 1.4 0 2.5 1.1 2.5 2.5 0 1.4-1.1 2.5-2.5 2.5zm-40 35c-1.4 0-2.5-1.1-2.5-2.5 0-1.4 1.1-2.5 2.5-2.5 1.4 0 2.5 1.1 2.5 2.5 0 1.4-1.1 2.5-2.5 2.5zm-44-14c-1.4 0-2.5-1.1-2.5-2.5 0-1.4 1.1-2.5 2.5-2.5 1.4 0 2.5 1.1 2.5 2.5 0 1.4-1.1 2.5-2.5 2.5zm-10-35c-1.4 0-2.5-1.1-2.5-2.5 0-1.4 1.1-2.5 2.5-2.5 1.4 0 2.5 1.1 2.5 2.5 0 1.4-1.1 2.5-2.5 2.5zm148-32c-1.4 0-2.5-1.1-2.5-2.5 0-1.4 1.1-2.5 2.5-2.5 1.4 0 2.5 1.1 2.5 2.5 0 1.4-1.1 2.5-2.5 2.5zm10 24c-1.4 0-2.5-1.1-2.5-2.5 0-1.4 1.1-2.5 2.5-2.5 1.4 0 2.5 1.1 2.5 2.5 0 1.4-1.1 2.5-2.5 2.5zm-23 19c-1.4 0-2.5-1.1-2.5-2.5 0-1.4 1.1-2.5 2.5-2.5 1.4 0 2.5 1.1 2.5 2.5 0 1.4-1.1 2.5-2.5 2.5zm21 12c-1.4 0-2.5-1.1-2.5-2.5 0-1.4 1.1-2.5 2.5-2.5 1.4 0 2.5 1.1 2.5 2.5 0 1.4-1.1 2.5-2.5 2.5zm55 5c-1.4 0-2.5-1.1-2.5-2.5 0-1.4 1.1-2.5 2.5-2.5 1.4 0 2.5 1.1 2.5 2.5 0 1.4-1.1 2.5-2.5 2.5zm25-23c-1.4 0-2.5-1.1-2.5-2.5 0-1.4 1.1-2.5 2.5-2.5 1.4 0 2.5 1.1 2.5 2.5 0 1.4-1.1 2.5-2.5 2.5zm23 36c-1.4 0-2.5-1.1-2.5-2.5 0-1.4 1.1-2.5 2.5-2.5 1.4 0 2.5 1.1 2.5 2.5 0 1.4-1.1 2.5-2.5 2.5zm21-32c-1.4 0-2.5-1.1-2.5-2.5 0-1.4 1.1-2.5 2.5-2.5 1.4 0 2.5 1.1 2.5 2.5 0 1.4-1.1 2.5-2.5 2.5zm18-24c-1.4 0-2.5-1.1-2.5-2.5 0-1.4 1.1-2.5 2.5-2.5 1.4 0 2.5 1.1 2.5 2.5 0 1.4-1.1 2.5-2.5 2.5z"/>
		<path id="Layer 3" class="s10" d="m212 335c0 0-12.2-128.7 2-153"/>
		<path id="Layer 7" class="s10" d="m296 365c0 0-22.4-33.7-6-63 16.4-29.3 76-18.3 55 61"/>
		<path id="Layer 8" class="s10" d="m248 249c0 0 39.2-36.9 103-14"/>
		<path id="Layer 9" class="s10" d="m352 237c1.2 12.7-4 14.9-28 7-24-7.9-78 8-78 8"/>
		<path id="Layer 4" class="s10" d="m187 151c0 0-8.7 166.8 5 179"/>
		<path id="Layer 5" class="s10" d="m183 358c0 0 28.8-1.9 28 42"/>
		<path id="Layer 6" class="s10" d="m192 394c0 0 3.5-14 14-14"/>
		<path id="Shape 1" class="s10" d="m400 621c-53.2 7-131.3-76.3-152-94-20.7-17.7-23-88-23-88"/>
		<path id="Layer 13" class="s10" d="m345 514c0 0 111.8 17.4 131-12"/>
		<path id="Layer 14" class="s10" d="m478 489c0 0-1.2 13.6 9 20"/>
		<path id="Shape 2 copy" class="s10" d="m589 340c0 0 52.2-28 56 16 3.8 44-31.3 115-70 74"/>
		<path id="Shape 8" class="s10" d="m94 809c0 0-23.6-107.6 69-115 92.6-7.4 142-35 142-35"/>
		<path id="Shape 8 copy" class="s10" d="m502 659c0 0 49.4 27.6 142 35 92.6 7.4 69 115 69 115"/>
		<path id="Layer 15" class="s10" d="m505 662"/>
		<path id="Shape 7" class="s10" d="m407 751c-20.9 4.3-132.7-22.3-109-75 23.7-52.7 21-87 21-87"/>
		<path id="Shape 7 copy" class="s10" d="m488 589c0 0-2.7 34.3 21 87 23.7 52.7-88.1 79.3-109 75"/>
		<path id="Shape 9" class="s10" d="m260 244c0 0 32.2-21.6 83-3"/>
		<path id="Shape 10" class="s10" d="m459 242c0 0 31.6-17.6 77-1"/>
		<path id="Shape 11" class="s10" d="m260 84c-23.8 28.4 0.2 144.4 9 102 8.8-42.4 26.4-78.8 86-103 59.6-24.2 97.2 50.6 154 39 56.8-11.6 82 59 82 59"/>
		<path id="Layer 16" class="s10" d="m550 125c0 0 25.8-106.2-53-100"/>
		<path id="Layer 17" class="s10" d="m292 71c-58.7 0.2-80.5 95.4-83 93-2.5-2.4-36.3-128.8 158-153 194.3-24.2 164 110 164 110"/>
		<path id="Layer 18" class="s10" d="m271 172c0 0-9.5-135.6 109-143 118.5-7.4 127.1 56.6 115 91"/>
		<path id="Shape 12" class="s10" d="m203 138c0 0 0.8-9.6-16 13-16.8 22.6-12-11.8 8-72 20-60.2 97-52 97-52"/>
		<path id="Layer 19" class="s10" d="m413 87c-54.3 1.4-94.5 44.6-105 87-10.5 42.4-21-33-21-33"/>
		<path id="Layer 20" class="s10" d="m429 98c-40.3-1.2-56.5 31.6-69 54-12.5 22.4-15-36-15-36"/>
		<path id="Shape 14" class="s10" d="m558 93c0 0 59.8 16.4 60 59"/>
		<path id="Layer 21" class="s12" d="m0 0"/>
		<path id="Shape 30" class="s10" d="m309 366c-8.3 0-15-11-15-24.5 0-13.5 6.7-24.5 15-24.5 8.3 0 15 11 15 24.5 0 13.5-6.7 24.5-15 24.5z"/>
		<path id="Shape 30 copy" class="s10" d="m478 363c-8.3 0-15-11-15-24.5 0-13.5 6.7-24.5 15-24.5 8.3 0 15 11 15 24.5 0 13.5-6.7 24.5-15 24.5z"/>
		<path id="Shape 13" class="s10" d="m249 152c-11.8 9.2-4.6 28.4-14 31-9.4 2.6-11-48-11-48"/>
		<path id="Layer 22" class="s10" d="m214 182c0 0 4.8-10.4 13-11"/>
		<path id="Layer 10" class="s10" d="m391.8 464c0 0-35.8 7.6-23-27 12.8-34.6 12-90 12-90"/>
		<path id="Shape 6" class="s10" d="m393.8 458c0 0 14.5 19.3 31-1"/>
		<path id="Shape 20" class="s10" d="m304 362"/>
		<path id="Layer 11" class="s10" d="m424.8 462c0 0 39 7.9 16-36"/>
		<path id="Shape 4" class="s10" d="m393 463"/>
		<path id="Shape 3" class="s10" d="m421 463c0 0 38.5 9.9 22-31"/>
		<path id="Layer 2 copy" class="s10" d="m514 373c0 0-23-11.8-62-6"/>
		<path id="Layer 3 copy" class="s10" d="m593 335c0 0 12.2-128.7-2-153"/>
		<path id="Layer 7 copy" class="s10" d="m460 363c-21-79.3 38.6-90.3 55-61 16.4 29.3-6 63-6 63"/>
		<path id="Layer 84" class="s10" d="m312.5 367c-10.2 0-18.5-12.1-18.5-27 0-14.9 8.3-27 18.5-27 10.2 0 18.5 12.1 18.5 27 0 14.9-8.3 27-18.5 27z"/>
		<path id="Layer 84 copy" class="s10" d="m482.5 365c-10.2 0-18.5-12.1-18.5-27 0-14.9 8.3-27 18.5-27 10.2 0 18.5 12.1 18.5 27 0 14.9-8.3 27-18.5 27z"/>
		<path id="Layer 8 copy" class="s10" d="m557 249c0 0-39.2-36.9-103-14"/>
		<path id="Layer 9 copy" class="s10" d="m559 252c0 0-54-15.9-78-8-24 7.9-29.2 5.7-28-7"/>
		<path id="Layer 4 copy" class="s10" d="m618 151c0 0 8.7 166.8-5 179"/>
		<path id="Layer 5 copy" class="s10" d="m622 358c0 0-28.8-1.9-28 42"/>
		<path id="Layer 6 copy" class="s10" d="m613 394c0 0-3.5-14-14-14"/>
		<path id="Shape 1 copy" class="s10" d="m580 439c0 0-2.3 70.3-23 88-20.7 17.7-98.8 101-152 94"/>
		<path id="Layer 82" class="s13" d="m309 364c-7.2 0-13-10.1-13-22.5 0-12.4 5.8-22.5 13-22.5 7.2 0 13 10.1 13 22.5 0 12.4-5.8 22.5-13 22.5z"/>
		<path id="Shape 44" class="s13" d="m478 360c-6.6 0-12-9.6-12-21.5 0-11.9 5.4-21.5 12-21.5 6.6 0 12 9.6 12 21.5 0 11.9-5.4 21.5-12 21.5z"/>
		<path id="Shape 45" class="s13" d="m464 362c-2.2 0-4-1.6-4-3.5 0-1.9 1.8-3.5 4-3.5 2.2 0 4 1.6 4 3.5 0 1.9-1.8 3.5-4 3.5z"/>
	</g>
</svg>