<svg version="1.2" xmlns="http://www.w3.org/2000/svg" viewBox="0 0 1080 271" width="1080" height="271">
	<title>New Project(22)</title>
	<style>
		tspan { white-space:pre } 
		.s0 { fill: none;stroke: #222222;stroke-linecap: round;stroke-linejoin: round;stroke-width: 14 } 
		.s1 { fill: #000000;stroke: #222222;stroke-linecap: round;stroke-linejoin: round;stroke-width: 14 } 
	</style>
	<path id="Layer 2" class="s0" d="m22 90h16"/>
	<path id="Shape 1" class="s0" d="m29 158l-1-63"/>
	<path id="Shape 2" class="s0" d="m70 123h-38"/>
	<path id="Shape 3" class="s0" d="m61 91h19"/>
	<path id="Shape 4" class="s0" d="m73 158l-1-62"/>
	<path id="Shape 5" class="s0" d="m18 159h22"/>
	<path id="Shape 6" class="s0" d="m62 159h20"/>
	<path id="Shape 7" class="s0" d="m111 114c0 0 38.6-14.1 44 9"/>
	<path id="Shape 8" class="s0" d="m155 158v-32"/>
	<path id="Layer 3" class="s0" d="m150 132c0 0-50.4-3.7-44 20"/>
	<path id="Shape 9" class="s0" d="m155 148c0 0-25.8 22.7-47 6"/>
	<path id="Shape 10" class="s0" d="m164 158h-8"/>
	<path id="Shape 11" class="s0" d="m184 111h21"/>
	<path id="Shape 12" class="s0" d="m231 110h19"/>
	<path id="Shape 13" class="s0" d="m193 115l24 50"/>
	<path id="Shape 22" class="s0" d="m599 90h17"/>
	<path id="Shape 23" class="s0" d="m600 159h24"/>
	<path id="Shape 24" class="s0" d="m653 158h24"/>
	<path id="Shape 25" class="s0" d="m609 155l-1-64"/>
	<path id="Shape 26" class="s0" d="m638 141l-22-47"/>
	<path id="Shape 27" class="s0" d="m661 92l-22 49"/>
	<path id="Shape 28" class="s0" d="m668 153v-62"/>
	<path id="Layer 12" class="s0" d="m660 89h17"/>
	<path id="Layer 13" class="s0" d="m722 161c-14.9 0-27-11.4-27-25.5 0-14.1 12.1-25.5 27-25.5 14.9 0 27 11.4 27 25.5 0 14.1-12.1 25.5-27 25.5z"/>
	<path id="Layer 13 copy" class="s0" d="m806 160c-14.9 0-27-11.4-27-25.5 0-14.1 12.1-25.5 27-25.5 14.9 0 27 11.4 27 25.5 0 14.1-12.1 25.5-27 25.5z"/>
	<path id="Layer 14" class="s0" d="m866 111h16"/>
	<path id="Shape 29" class="s0" d="m863 158h43"/>
	<path id="Shape 30" class="s0" d="m921 114c0 0-18-16-40 14"/>
	<path id="Layer 15" class="s0" d="m880 112v43"/>
	<path id="Shape 31" class="s0" d="m1003 155c0 0-55.9 17.1-59-17"/>
	<path id="Layer 16" class="s0" d="m944 135h57"/>
	<path id="Layer 17" class="s0" d="m943 135c0 0 0.5-25.6 28-25 27.5 0.6 31 25 31 25"/>
	<path id="Shape 14" class="s0" d="m205 186l38-72m814.5 48c-2.5 0-4.5-2-4.5-4.5 0-2.5 2-4.5 4.5-4.5 2.5 0 4.5 2 4.5 4.5 0 2.5-2 4.5-4.5 4.5z"/>
	<path id="Layer 4" class="s1" d="m187 187h32"/>
	<path id="Shape 21" class="s0" d="m449 123c0 0 10.8-14.5 29-15 18.2-0.5 14 46 14 46"/>
	<path id="Layer 5" class="s1" d="m327 86l1 73"/>
	<path id="Shape 16" class="s1" d="m314 85h15"/>
	<path id="Shape 17" class="s1" d="m340 158h-12"/>
	<path id="Layer 6" class="s0" d="m300 160c-13.8 0-25-11.2-25-25 0-13.8 11.2-25 25-25 13.8 0 25 11.2 25 25 0 13.8-11.2 25-25 25z"/>
	<path id="Layer 7" class="s0" d="m415 154c0 0-47.9 21.1-60-15"/>
	<path id="Layer 8" class="s0" d="m355 135h59"/>
	<path id="Layer 9" class="s0" d="m355 135c0 0 0.9-24 28-25 27.1-1 32 25 32 25"/>
	<path id="Layer 10" class="s0" d="m439 110h12"/>
	<path id="Shape 18" class="s0" d="m437 158h21"/>
	<path id="Shape 19" class="s0" d="m483 158h19"/>
	<path id="Layer 11" class="s0" d="m448 114v43"/>
	<path id="Shape 20" class="s0" d="m493 154"/>
</svg>